<svg width="80" height="80" viewBox="0 0 80 80" fill="none" xmlns="http://www.w3.org/2000/svg">
<circle cx="40" cy="40" r="40" fill="#1FA0F3"/>
<path d="M41.8267 62.7378L50.0604 59.6883C52.7408 58.6956 53.8826 55.5292 52.4526 53.0543C51.6595 51.6815 50.0163 51.0478 48.5067 51.5325L40.6469 54.0563C39.9178 54.2904 39.1321 54.279 38.4102 54.0237L31.5776 51.6082C30.0399 51.0645 28.3331 51.6944 27.5171 53.1066C26.1021 55.5557 27.1869 58.6903 29.8132 59.7408L37.1551 62.6776C38.651 63.2759 40.3158 63.2974 41.8267 62.7378Z" fill="white" stroke="#1FA0F3" stroke-width="3"/>
<path d="M56.214 34.7195C55.6367 33.8834 54.7609 33.4654 53.5864 33.4654C52.4119 33.4654 51.5261 33.8834 50.9289 34.7195C50.3516 35.5357 50.063 36.8395 50.063 38.6311C50.063 40.4226 50.3516 41.7365 50.9289 42.5725C51.5261 43.3887 52.4119 43.7968 53.5864 43.7968C54.7609 43.7968 55.6367 43.3887 56.214 42.5725C56.8112 41.7365 57.1098 40.4226 57.1098 38.6311C57.1098 36.8395 56.8112 35.5357 56.214 34.7195ZM59.1402 44.603C57.8264 45.9964 55.9751 46.6931 53.5864 46.6931C51.1976 46.6931 49.3364 45.9964 48.0027 44.603C46.6889 43.1896 46.032 41.199 46.032 38.6311C46.032 36.0632 46.6889 34.0825 48.0027 32.6891C49.3364 31.2757 51.1976 30.5691 53.5864 30.5691C55.9751 30.5691 57.8264 31.2757 59.1402 32.6891C60.474 34.0825 61.1408 36.0632 61.1408 38.6311C61.1408 41.199 60.474 43.1896 59.1402 44.603Z" fill="white"/>
<path d="M39.5856 46.3945C39.1278 46.3945 38.7297 46.2253 38.3912 45.8869C38.0528 45.5485 37.8836 45.1504 37.8836 44.6925V32.5696C37.8836 32.1118 38.0528 31.7137 38.3912 31.3753C38.7297 31.0369 39.1278 30.8676 39.5856 30.8676H40.362C40.8198 30.8676 41.2179 31.0369 41.5563 31.3753C41.8947 31.7137 42.0639 32.1118 42.0639 32.5696V44.6925C42.0639 45.1504 41.8947 45.5485 41.5563 45.8869C41.2179 46.2253 40.8198 46.3945 40.362 46.3945H39.5856ZM39.5856 27.5831C39.1278 27.5831 38.7297 27.4139 38.3912 27.0755C38.0528 26.7371 37.8836 26.339 37.8836 25.8811V25.702C37.8836 25.2441 38.0528 24.846 38.3912 24.5076C38.7297 24.1692 39.1278 24 39.5856 24H40.362C40.8198 24 41.2179 24.1692 41.5563 24.5076C41.8947 24.846 42.0639 25.2441 42.0639 25.702V25.8811C42.0639 26.339 41.8947 26.7371 41.5563 27.0755C41.2179 27.4139 40.8198 27.5831 40.362 27.5831H39.5856Z" fill="white"/>
<path d="M22.9414 36.6006V40.6615C22.9414 41.4578 23.2798 42.1644 23.9567 42.7815C24.6335 43.3986 25.4397 43.7072 26.3753 43.7072C27.4303 43.7072 28.2664 43.2891 28.8834 42.4531C29.5005 41.5971 29.8091 40.3231 29.8091 38.6311C29.8091 35.247 28.6645 33.555 26.3753 33.555C25.4397 33.555 24.6335 33.8635 23.9567 34.4806C23.2798 35.0977 22.9414 35.8044 22.9414 36.6006ZM20.702 46.3945C20.2441 46.3945 19.846 46.2253 19.5076 45.8869C19.1692 45.5485 19 45.1504 19 44.6925V25.702C19 25.2441 19.1692 24.846 19.5076 24.5076C19.846 24.1692 20.2441 24 20.702 24H21.2992C21.757 24 22.1551 24.1692 22.4935 24.5076C22.8319 24.846 23.0012 25.2441 23.0012 25.702V32.4203C23.0012 32.4402 23.0111 32.4502 23.031 32.4502C23.0509 32.4502 23.0708 32.4402 23.0907 32.4203C24.3846 31.1861 25.8776 30.5691 27.5696 30.5691C29.4408 30.5691 30.9338 31.2757 32.0485 32.6891C33.1832 34.0825 33.7505 36.0632 33.7505 38.6311C33.7505 41.1194 33.1633 43.0901 31.9888 44.5432C30.8143 45.9765 29.3413 46.6931 27.5696 46.6931C25.7582 46.6931 24.1955 45.9566 22.8817 44.4835C22.8618 44.4636 22.8419 44.4537 22.822 44.4537C22.8021 44.4537 22.7921 44.4636 22.7921 44.4835L22.7623 44.6925C22.7424 45.1703 22.5632 45.5784 22.2248 45.9168C21.9063 46.2353 21.5082 46.3945 21.0304 46.3945H20.702Z" fill="white"/>
</svg>
