<svg width="80" height="80" viewBox="0 0 80 80" fill="none" xmlns="http://www.w3.org/2000/svg">
<circle cx="40" cy="40" r="40" fill="#1FA0F3"/>
<path d="M51.3363 28.7818C51.3363 26.1093 50.3598 24.7731 48.4069 24.7731C46.4539 24.7731 45.4774 26.1093 45.4774 28.7818C45.4774 31.4543 46.4539 32.7905 48.4069 32.7905C50.3598 32.7905 51.3363 31.4543 51.3363 28.7818ZM52.1535 33.0372C51.2387 34.0548 49.9898 34.5636 48.4069 34.5636C46.824 34.5636 45.5699 34.0548 44.6449 33.0372C43.73 32.0196 43.2726 30.6011 43.2726 28.7818C43.2726 26.9625 43.73 25.544 44.6449 24.5264C45.5699 23.5088 46.824 23 48.4069 23C49.9898 23 51.2387 23.5088 52.1535 24.5264C53.0786 25.544 53.5411 26.9625 53.5411 28.7818C53.5411 30.6011 53.0786 32.0196 52.1535 33.0372Z" fill="white"/>
<path d="M39.7332 34.4094C39.4968 34.4094 39.2912 34.3221 39.1165 34.1473C38.9417 33.9726 38.8544 33.767 38.8544 33.5306V24.033C38.8544 23.7966 38.9417 23.591 39.1165 23.4163C39.2912 23.2416 39.4968 23.1542 39.7332 23.1542H40.3499C40.5863 23.1542 40.7919 23.2416 40.9667 23.4163C41.1414 23.591 41.2288 23.7966 41.2288 24.033V33.5306C41.2288 33.767 41.1414 33.9726 40.9667 34.1473C40.7919 34.3221 40.5863 34.4094 40.3499 34.4094H39.7332Z" fill="white"/>
<path d="M31.1277 29.4139V32.6518C31.1277 32.734 31.174 32.7854 31.2665 32.8059C31.6262 32.8573 31.9654 32.883 32.2841 32.883C33.1372 32.883 33.7591 32.7288 34.1497 32.4205C34.5505 32.1018 34.751 31.6187 34.751 30.9712C34.751 30.3956 34.5197 29.9741 34.0571 29.7069C33.6049 29.4294 32.8494 29.2906 31.7907 29.2906H31.251C31.1688 29.2906 31.1277 29.3317 31.1277 29.4139ZM31.1277 24.9118V27.5483C31.1277 27.6409 31.1688 27.6871 31.251 27.6871H31.6982C32.6541 27.6871 33.3428 27.5586 33.7642 27.3017C34.1959 27.0344 34.4118 26.6438 34.4118 26.1299C34.4118 25.6365 34.237 25.2716 33.8875 25.0352C33.5381 24.7988 32.9676 24.6806 32.1761 24.6806C31.8164 24.6806 31.508 24.7011 31.251 24.7422C31.1688 24.7628 31.1277 24.8193 31.1277 24.9118ZM29.8634 34.4403C29.6167 34.4197 29.4112 34.3169 29.2467 34.1319C29.0822 33.9366 29 33.7105 29 33.4535V24.1101C29 23.8531 29.0822 23.6321 29.2467 23.4471C29.4112 23.2518 29.6219 23.1439 29.8788 23.1233C30.6395 23.0411 31.3744 23 32.0836 23C34.9617 23 36.4007 23.9405 36.4007 25.8215C36.4007 26.4485 36.19 26.9933 35.7686 27.4558C35.3471 27.9184 34.7921 28.2165 34.1034 28.3501C34.0931 28.3501 34.088 28.3552 34.088 28.3655C34.088 28.3861 34.0931 28.3963 34.1034 28.3963C34.9463 28.5197 35.6041 28.8332 36.0769 29.3369C36.56 29.8302 36.8016 30.4418 36.8016 31.1716C36.8016 32.3023 36.4315 33.1503 35.6915 33.7156C34.9514 34.2809 33.8002 34.5636 32.2378 34.5636C31.4566 34.5636 30.6652 34.5225 29.8634 34.4403Z" fill="white"/>
<rect x="22.5" y="19.5" width="36" height="19" rx="6.5" stroke="white" stroke-width="3"/>
<path d="M40.9252 50.9737H29.4405C26.8728 50.9737 24.6184 52.6809 23.9222 55.1523C22.9566 58.5806 25.3178 62.0504 28.8613 62.4102L34.1077 62.9429C34.5282 62.9856 34.9519 62.9872 35.3728 62.9477L41.46 62.3753C45.0112 62.0415 47.3916 58.5713 46.4246 55.1381C45.7309 52.6751 43.4841 50.9737 40.9252 50.9737Z" fill="white" stroke="#1FA0F3" stroke-width="3"/>
<circle cx="35.1754" cy="44.7368" r="7.73684" fill="white" stroke="#1FA0F3" stroke-width="4"/>
</svg>
