<svg width="80" height="80" viewBox="0 0 80 80" fill="none" xmlns="http://www.w3.org/2000/svg">
<circle cx="40" cy="40" r="40" fill="#1FA0F3"/>
<rect x="35.5" y="23.5" width="25" height="19" rx="6.5" stroke="white" stroke-width="3"/>
<path d="M54.2557 32.1064C54.0345 31.7861 53.699 31.6259 53.2491 31.6259C52.7992 31.6259 52.4599 31.7861 52.2311 32.1064C52.01 32.419 51.8994 32.9185 51.8994 33.6048C51.8994 34.2911 52.01 34.7944 52.2311 35.1146C52.4599 35.4273 52.7992 35.5836 53.2491 35.5836C53.699 35.5836 54.0345 35.4273 54.2557 35.1146C54.4845 34.7944 54.5988 34.2911 54.5988 33.6048C54.5988 32.9185 54.4845 32.419 54.2557 32.1064ZM55.3766 35.8924C54.8734 36.4262 54.1642 36.6931 53.2491 36.6931C52.3341 36.6931 51.6211 36.4262 51.1102 35.8924C50.6069 35.351 50.3552 34.5885 50.3552 33.6048C50.3552 32.6211 50.6069 31.8623 51.1102 31.3286C51.6211 30.7871 52.3341 30.5164 53.2491 30.5164C54.1642 30.5164 54.8734 30.7871 55.3766 31.3286C55.8876 31.8623 56.143 32.6211 56.143 33.6048C56.143 34.5885 55.8876 35.351 55.3766 35.8924Z" fill="white"/>
<path d="M47.8858 36.5787C47.7104 36.5787 47.5579 36.5139 47.4283 36.3843C47.2986 36.2546 47.2338 36.1021 47.2338 35.9267V31.2828C47.2338 31.1074 47.2986 30.9549 47.4283 30.8253C47.5579 30.6956 47.7104 30.6308 47.8858 30.6308H48.1832C48.3586 30.6308 48.5111 30.6956 48.6407 30.8253C48.7704 30.9549 48.8352 31.1074 48.8352 31.2828V35.9267C48.8352 36.1021 48.7704 36.2546 48.6407 36.3843C48.5111 36.5139 48.3586 36.5787 48.1832 36.5787H47.8858ZM47.8858 29.3726C47.7104 29.3726 47.5579 29.3078 47.4283 29.1781C47.2986 29.0485 47.2338 28.896 47.2338 28.7206V28.652C47.2338 28.4766 47.2986 28.3241 47.4283 28.1945C47.5579 28.0648 47.7104 28 47.8858 28H48.1832C48.3586 28 48.5111 28.0648 48.6407 28.1945C48.7704 28.3241 48.8352 28.4766 48.8352 28.652V28.7206C48.8352 28.896 48.7704 29.0485 48.6407 29.1781C48.5111 29.3078 48.3586 29.3726 48.1832 29.3726H47.8858Z" fill="white"/>
<path d="M41.5099 32.827V34.3826C41.5099 34.6876 41.6395 34.9583 41.8988 35.1947C42.158 35.4311 42.4669 35.5493 42.8253 35.5493C43.2294 35.5493 43.5497 35.3891 43.7861 35.0689C44.0225 34.741 44.1407 34.2529 44.1407 33.6048C44.1407 32.3084 43.7022 31.6603 42.8253 31.6603C42.4669 31.6603 42.158 31.7785 41.8988 32.0148C41.6395 32.2512 41.5099 32.5219 41.5099 32.827ZM40.652 36.5787C40.4766 36.5787 40.3241 36.5139 40.1945 36.3843C40.0648 36.2546 40 36.1021 40 35.9267V28.652C40 28.4766 40.0648 28.3241 40.1945 28.1945C40.3241 28.0648 40.4766 28 40.652 28H40.8807C41.0561 28 41.2086 28.0648 41.3383 28.1945C41.4679 28.3241 41.5327 28.4766 41.5327 28.652V31.2256C41.5327 31.2332 41.5365 31.237 41.5442 31.237C41.5518 31.237 41.5594 31.2332 41.567 31.2256C42.0627 30.7528 42.6346 30.5164 43.2828 30.5164C43.9996 30.5164 44.5715 30.7871 44.9985 31.3285C45.4332 31.8623 45.6505 32.6211 45.6505 33.6048C45.6505 34.558 45.4256 35.3129 44.9757 35.8696C44.5258 36.4186 43.9615 36.6931 43.2828 36.6931C42.5889 36.6931 41.9903 36.411 41.487 35.8467C41.4794 35.8391 41.4717 35.8352 41.4641 35.8352C41.4565 35.8352 41.4527 35.8391 41.4527 35.8467L41.4412 35.9267C41.4336 36.1098 41.365 36.2661 41.2353 36.3957C41.1133 36.5177 40.9608 36.5787 40.7778 36.5787H40.652Z" fill="white"/>
<path d="M37.6885 45.5H24.3287C21.4516 45.5 18.9253 47.413 18.1453 50.1824C17.0632 54.0239 19.7091 57.912 23.6797 58.3152L29.8621 58.9429C30.2826 58.9856 30.7063 58.9872 31.1271 58.9477L38.2877 58.2744C42.2665 57.9004 44.9335 54.0124 43.8501 50.1658C43.0728 47.4062 40.5555 45.5 37.6885 45.5Z" fill="white" stroke="#1FA0F3" stroke-width="3"/>
<circle cx="31" cy="38" r="9" fill="white" stroke="#1FA0F3" stroke-width="4"/>
</svg>
