<svg width="80" height="80" viewBox="0 0 80 80" fill="none" xmlns="http://www.w3.org/2000/svg">
<circle cx="40" cy="40" r="40" fill="#1FA0F3"/>
<path d="M27.5403 35.78L27.1698 37.0953C26.0749 40.9823 28.7521 44.9164 32.7697 45.3243L38.8621 45.9429C39.2826 45.9856 39.7063 45.9872 40.1271 45.9477L47.1698 45.2855C51.2099 44.9057 53.9181 40.9577 52.818 37.0518L52.4597 35.78C51.9133 33.84 50.1437 32.5 48.1283 32.5H31.8717C29.8563 32.5 28.0867 33.84 27.5403 35.78Z" fill="white" stroke="#1FA0F3" stroke-width="3"/>
<circle cx="40" cy="25" r="9" fill="white" stroke="#1FA0F3" stroke-width="4"/>
<path d="M48.8152 52.9958C48.4923 52.5282 48.0024 52.2944 47.3455 52.2944C46.6886 52.2944 46.1931 52.5282 45.8591 52.9958C45.5362 53.4523 45.3747 54.1816 45.3747 55.1837C45.3747 56.1858 45.5362 56.9207 45.8591 57.3883C46.1931 57.8448 46.6886 58.0731 47.3455 58.0731C48.0024 58.0731 48.4923 57.8448 48.8152 57.3883C49.1493 56.9207 49.3163 56.1858 49.3163 55.1837C49.3163 54.1816 49.1493 53.4523 48.8152 52.9958ZM50.452 58.524C49.7171 59.3034 48.6816 59.6931 47.3455 59.6931C46.0094 59.6931 44.9683 59.3034 44.2223 58.524C43.4875 57.7335 43.12 56.6201 43.12 55.1837C43.12 53.7474 43.4875 52.6395 44.2223 51.8601C44.9683 51.0696 46.0094 50.6743 47.3455 50.6743C48.6816 50.6743 49.7171 51.0696 50.452 51.8601C51.198 52.6395 51.571 53.7474 51.571 55.1837C51.571 56.6201 51.198 57.7335 50.452 58.524Z" fill="white"/>
<path d="M39.5143 59.5261C39.2582 59.5261 39.0356 59.4315 38.8463 59.2422C38.657 59.0529 38.5623 58.8302 38.5623 58.5741V51.7933C38.5623 51.5372 38.657 51.3145 38.8463 51.1253C39.0356 50.936 39.2582 50.8413 39.5143 50.8413H39.9486C40.2047 50.8413 40.4273 50.936 40.6166 51.1253C40.8059 51.3145 40.9006 51.5372 40.9006 51.7933V58.5741C40.9006 58.8302 40.8059 59.0529 40.6166 59.2422C40.4273 59.4315 40.2047 59.5261 39.9486 59.5261H39.5143ZM39.5143 49.0042C39.2582 49.0042 39.0356 48.9095 38.8463 48.7203C38.657 48.531 38.5623 48.3083 38.5623 48.0522V47.952C38.5623 47.6959 38.657 47.4732 38.8463 47.2839C39.0356 47.0946 39.2582 47 39.5143 47H39.9486C40.2047 47 40.4273 47.0946 40.6166 47.2839C40.8059 47.4732 40.9006 47.6959 40.9006 47.952V48.0522C40.9006 48.3083 40.8059 48.531 40.6166 48.7203C40.4273 48.9095 40.2047 49.0042 39.9486 49.0042H39.5143Z" fill="white"/>
<path d="M30.2046 54.048V56.3194C30.2046 56.7648 30.3939 57.1601 30.7724 57.5052C31.151 57.8504 31.6019 58.023 32.1253 58.023C32.7154 58.023 33.183 57.7891 33.5282 57.3215C33.8733 56.8427 34.0459 56.1301 34.0459 55.1837C34.0459 53.2909 33.4057 52.3445 32.1253 52.3445C31.6019 52.3445 31.151 52.517 30.7724 52.8622C30.3939 53.2074 30.2046 53.6026 30.2046 54.048ZM28.952 59.5261C28.6959 59.5261 28.4732 59.4315 28.2839 59.2422C28.0946 59.0529 28 58.8302 28 58.5741V47.952C28 47.6959 28.0946 47.4732 28.2839 47.2839C28.4732 47.0946 28.6959 47 28.952 47H29.286C29.5421 47 29.7648 47.0946 29.9541 47.2839C30.1434 47.4732 30.238 47.6959 30.238 47.952V51.7098C30.238 51.7209 30.2436 51.7265 30.2547 51.7265C30.2658 51.7265 30.277 51.7209 30.2881 51.7098C31.0118 51.0195 31.8469 50.6743 32.7933 50.6743C33.8399 50.6743 34.675 51.0696 35.2985 51.8601C35.9332 52.6395 36.2505 53.7474 36.2505 55.1837C36.2505 56.5755 35.9221 57.6778 35.2651 58.4906C34.6082 59.2923 33.7843 59.6931 32.7933 59.6931C31.7801 59.6931 30.9061 59.2811 30.1712 58.4572C30.1601 58.4461 30.1489 58.4405 30.1378 58.4405C30.1267 58.4405 30.1211 58.4461 30.1211 58.4572L30.1044 58.5741C30.0933 58.8413 29.993 59.0696 29.8038 59.2589C29.6256 59.437 29.4029 59.5261 29.1357 59.5261H28.952Z" fill="white"/>
</svg>
