<svg width="80" height="80" viewBox="0 0 80 80" fill="none" xmlns="http://www.w3.org/2000/svg">
<circle cx="40" cy="40" r="40" fill="#669379"/>
<path d="M54.0826 29.424L52.7742 32.487C50.7048 37.3316 45.8053 40.3446 40.5482 40.0055V40.0055C35.3399 39.6696 30.4769 42.6243 28.3752 47.4015L27.3352 49.7655" stroke="white" stroke-width="3.42853" stroke-linecap="round"/>
<path d="M39.5 33L45.5 35" stroke="white" stroke-width="1.71427" stroke-linecap="round"/>
<path d="M36 45.4755L41.5 47" stroke="white" stroke-width="1.71427" stroke-linecap="round"/>
<path d="M39 28L49 31" stroke="white" stroke-width="1.71427" stroke-linecap="round"/>
<path d="M33 49L43 52" stroke="white" stroke-width="1.71427" stroke-linecap="round"/>
<path d="M36.7653 24.4074C36.9351 22.9974 35.9299 21.7167 34.5199 21.5469C33.11 21.377 31.8293 22.3823 31.6594 23.7922L31.261 27.099C30.5004 33.4117 33.8034 39.5177 39.503 42.3359C43.2132 44.1704 45.3816 48.128 44.9307 52.2423L44.6494 54.8097C44.4947 56.2213 45.5137 57.4912 46.9253 57.6459C48.337 57.8006 49.6069 56.7816 49.7616 55.3699L50.0429 52.8026C50.7291 46.5409 47.4291 40.5178 41.7824 37.7259C38.0374 35.8741 35.8671 31.862 36.3669 27.7142L36.7653 24.4074Z" fill="white" stroke="#669379" stroke-width="1.71427" stroke-linecap="round"/>
</svg>
