<?xml version="1.0" encoding="UTF-8" standalone="no"?>
<!DOCTYPE svg PUBLIC "-//W3C//DTD SVG 1.1//EN" "http://www.w3.org/Graphics/SVG/1.1/DTD/svg11.dtd">
<svg xmlns:xl="http://www.w3.org/1999/xlink" version="1.1" xmlns="http://www.w3.org/2000/svg" xmlns:dc="http://purl.org/dc/elements/1.1/" viewBox="-2248 -3493 40 40" width="40" height="40">
  <defs/>
  <g id="Canvas_1" stroke="none" fill-opacity="1" stroke-dasharray="none" stroke-opacity="1" fill="none">
    <title>Canvas 1</title>
    <rect fill="white" x="-2248" y="-3493" width="40" height="40"/>
    <g id="Canvas_1_Layer_1">
      <title>Layer 1</title>
      <g id="Group_116">
        <g id="Graphic_115">
          <circle cx="-2228" cy="-3473" r="20.0000319580379" fill="#1fa0f3"/>
        </g>
        <g id="Graphic_114">
          <path d="M -2227.0866 -3461.631 L -2222.9698 -3463.156 C -2221.6296 -3463.652 -2221.0587 -3465.2354 -2221.7737 -3466.473 C -2222.1702 -3467.1592 -2222.9918 -3467.476 -2223.7466 -3467.2338 L -2227.6766 -3465.972 C -2228.041 -3465.855 -2228.434 -3465.8605 -2228.795 -3465.988 L -2232.2112 -3467.196 C -2232.98 -3467.4678 -2233.8334 -3467.153 -2234.2414 -3466.4467 C -2234.949 -3465.222 -2234.4066 -3463.655 -2233.0934 -3463.1296 L -2229.4224 -3461.661 C -2228.6745 -3461.362 -2227.842 -3461.3513 -2227.0866 -3461.631 Z" fill="white"/>
          <path d="M -2227.0866 -3461.631 L -2222.9698 -3463.156 C -2221.6296 -3463.652 -2221.0587 -3465.2354 -2221.7737 -3466.473 C -2222.1702 -3467.1592 -2222.9918 -3467.476 -2223.7466 -3467.2338 L -2227.6766 -3465.972 C -2228.041 -3465.855 -2228.434 -3465.8605 -2228.795 -3465.988 L -2232.2112 -3467.196 C -2232.98 -3467.4678 -2233.8334 -3467.153 -2234.2414 -3466.4467 C -2234.949 -3465.222 -2234.4066 -3463.655 -2233.0934 -3463.1296 L -2229.4224 -3461.661 C -2228.6745 -3461.362 -2227.842 -3461.3513 -2227.0866 -3461.631 Z" stroke="#1fa0f3" stroke-linecap="butt" stroke-linejoin="round" stroke-width="3"/>
        </g>
        <g id="Graphic_113">
          <path d="M -2219.893 -3475.6402 C -2220.1816 -3476.0583 -2220.6196 -3476.2673 -2221.2068 -3476.2673 C -2221.794 -3476.2673 -2222.237 -3476.0583 -2222.5356 -3475.6402 C -2222.8242 -3475.232 -2222.9685 -3474.5802 -2222.9685 -3473.6844 C -2222.9685 -3472.7887 -2222.8242 -3472.1317 -2222.5356 -3471.7138 C -2222.237 -3471.3056 -2221.794 -3471.1016 -2221.2068 -3471.1016 C -2220.6196 -3471.1016 -2220.1816 -3471.3056 -2219.893 -3471.7138 C -2219.5944 -3472.1317 -2219.445 -3472.7887 -2219.445 -3473.6844 C -2219.445 -3474.5802 -2219.5944 -3475.232 -2219.893 -3475.6402 Z M -2218.43 -3470.6985 C -2219.0868 -3470.002 -2220.0124 -3469.6534 -2221.2068 -3469.6534 C -2222.4012 -3469.6534 -2223.3318 -3470.002 -2223.9986 -3470.6985 C -2224.6556 -3471.405 -2224.984 -3472.4005 -2224.984 -3473.6844 C -2224.984 -3474.9684 -2224.6556 -3475.9588 -2223.9986 -3476.6554 C -2223.3318 -3477.362 -2222.4012 -3477.7154 -2221.2068 -3477.7154 C -2220.0124 -3477.7154 -2219.0868 -3477.362 -2218.43 -3476.6554 C -2217.763 -3475.9588 -2217.4296 -3474.9684 -2217.4296 -3473.6844 C -2217.4296 -3472.4005 -2217.763 -3471.405 -2218.43 -3470.6985 Z" fill="white"/>
        </g>
        <g id="Graphic_112">
          <path d="M -2228.2072 -3469.8028 C -2228.436 -3469.8028 -2228.6352 -3469.8874 -2228.8044 -3470.0566 C -2228.9736 -3470.2258 -2229.0582 -3470.425 -2229.0582 -3470.6538 L -2229.0582 -3476.715 C -2229.0582 -3476.944 -2228.9736 -3477.143 -2228.8044 -3477.3124 C -2228.6352 -3477.4816 -2228.436 -3477.566 -2228.2072 -3477.566 L -2227.819 -3477.566 C -2227.59 -3477.566 -2227.391 -3477.4816 -2227.2218 -3477.3124 C -2227.0526 -3477.143 -2226.968 -3476.944 -2226.968 -3476.715 L -2226.968 -3470.6538 C -2226.968 -3470.425 -2227.0526 -3470.2258 -2227.2218 -3470.0566 C -2227.391 -3469.8874 -2227.59 -3469.8028 -2227.819 -3469.8028 Z M -2228.2072 -3479.2084 C -2228.436 -3479.2084 -2228.6352 -3479.293 -2228.8044 -3479.4622 C -2228.9736 -3479.6314 -2229.0582 -3479.8305 -2229.0582 -3480.0594 L -2229.0582 -3480.149 C -2229.0582 -3480.378 -2228.9736 -3480.577 -2228.8044 -3480.746 C -2228.6352 -3480.9154 -2228.436 -3481 -2228.2072 -3481 L -2227.819 -3481 C -2227.59 -3481 -2227.391 -3480.9154 -2227.2218 -3480.746 C -2227.0526 -3480.577 -2226.968 -3480.378 -2226.968 -3480.149 L -2226.968 -3480.0594 C -2226.968 -3479.8305 -2227.0526 -3479.6314 -2227.2218 -3479.4622 C -2227.391 -3479.293 -2227.59 -3479.2084 -2227.819 -3479.2084 Z" fill="white"/>
        </g>
        <g id="Graphic_111">
          <path d="M -2236.5293 -3474.6997 L -2236.5293 -3472.6692 C -2236.5293 -3472.271 -2236.36 -3471.918 -2236.0216 -3471.6092 C -2235.6832 -3471.3007 -2235.2802 -3471.1464 -2234.8124 -3471.1464 C -2234.2848 -3471.1464 -2233.8668 -3471.3554 -2233.5583 -3471.7734 C -2233.2498 -3472.2014 -2233.0954 -3472.8384 -2233.0954 -3473.6844 C -2233.0954 -3475.3765 -2233.6678 -3476.2225 -2234.8124 -3476.2225 C -2235.2802 -3476.2225 -2235.6832 -3476.0682 -2236.0216 -3475.7597 C -2236.36 -3475.451 -2236.5293 -3475.098 -2236.5293 -3474.6997 Z M -2237.649 -3469.8028 C -2237.878 -3469.8028 -2238.077 -3469.8874 -2238.2462 -3470.0566 C -2238.4154 -3470.2258 -2238.5 -3470.425 -2238.5 -3470.6538 L -2238.5 -3480.149 C -2238.5 -3480.378 -2238.4154 -3480.577 -2238.2462 -3480.746 C -2238.077 -3480.9154 -2237.878 -3481 -2237.649 -3481 L -2237.3504 -3481 C -2237.1215 -3481 -2236.9224 -3480.9154 -2236.7532 -3480.746 C -2236.584 -3480.577 -2236.4994 -3480.378 -2236.4994 -3480.149 L -2236.4994 -3476.79 C -2236.4994 -3476.78 -2236.4944 -3476.775 -2236.4845 -3476.775 C -2236.4746 -3476.775 -2236.4646 -3476.78 -2236.4546 -3476.79 C -2235.8077 -3477.407 -2235.0612 -3477.7154 -2234.2152 -3477.7154 C -2233.2796 -3477.7154 -2232.533 -3477.362 -2231.9758 -3476.6554 C -2231.4084 -3475.9588 -2231.1248 -3474.9684 -2231.1248 -3473.6844 C -2231.1248 -3472.4403 -2231.4184 -3471.455 -2232.0056 -3470.7284 C -2232.5928 -3470.0118 -2233.3294 -3469.6534 -2234.2152 -3469.6534 C -2235.121 -3469.6534 -2235.9022 -3470.0217 -2236.5592 -3470.7582 C -2236.569 -3470.768 -2236.579 -3470.773 -2236.589 -3470.773 C -2236.599 -3470.773 -2236.604 -3470.768 -2236.604 -3470.7582 L -2236.6188 -3470.6538 C -2236.6288 -3470.415 -2236.7184 -3470.211 -2236.8876 -3470.0416 C -2237.0468 -3469.8824 -2237.246 -3469.8028 -2237.4848 -3469.8028 Z" fill="white"/>
        </g>
      </g>
    </g>
  </g>
</svg>
