<?xml version="1.0" encoding="UTF-8" standalone="no"?>
<!DOCTYPE svg PUBLIC "-//W3C//DTD SVG 1.1//EN" "http://www.w3.org/Graphics/SVG/1.1/DTD/svg11.dtd">
<svg xmlns="http://www.w3.org/2000/svg" xmlns:xl="http://www.w3.org/1999/xlink" version="1.1" xmlns:dc="http://purl.org/dc/elements/1.1/" viewBox="-4221.407 10429 248.899 164.699" width="248.899" height="164.699">
  <defs/>
  <g id="Canvas_1" fill="none" stroke="none" stroke-dasharray="none" fill-opacity="1" stroke-opacity="1">
    <title>Canvas 1</title>
    <rect fill="white" x="-4221.407" y="10429" width="248.899" height="164.699"/>
    <g id="Canvas_1_Layer_1">
      <title>Layer 1</title>
      <g id="Graphic_56">
        <title>path21</title>
        <path d="M -4195.977 10499.902 C -4195.977 10499.902 -4173.473 10466.699 -4128.54 10463.264 L -4128.54 10451.218 C -4178.309 10455.215 -4221.407 10497.367 -4221.407 10497.367 C -4221.407 10497.367 -4196.997 10567.932 -4128.54 10574.393 L -4128.54 10561.589 C -4178.777 10555.269 -4195.977 10499.902 -4195.977 10499.902 M -4128.54 10536.125 L -4128.54 10547.851 C -4166.508 10541.082 -4177.047 10501.614 -4177.047 10501.614 C -4177.047 10501.614 -4158.817 10481.419 -4128.54 10478.144 L -4128.54 10491.011 C -4128.563 10491.011 -4128.579 10491.004 -4128.598 10491.004 C -4144.489 10489.097 -4156.903 10503.942 -4156.903 10503.942 C -4156.903 10503.942 -4149.945 10528.933 -4128.54 10536.125 M -4128.54 10429 L -4128.54 10451.218 C -4127.079 10451.106 -4125.618 10451.011 -4124.149 10450.961 C -4067.567 10449.054 -4030.7 10497.367 -4030.7 10497.367 C -4030.7 10497.367 -4073.043 10548.855 -4117.157 10548.855 C -4121.2 10548.855 -4124.985 10548.48 -4128.54 10547.85 L -4128.54 10561.589 C -4125.5 10561.975 -4122.348 10562.202 -4119.059 10562.202 C -4078.008 10562.202 -4048.321 10541.237 -4019.575 10516.424 C -4014.809 10520.241 -3995.297 10529.527 -3991.286 10533.592 C -4018.618 10556.475 -4082.317 10574.921 -4118.43 10574.921 C -4121.911 10574.921 -4125.254 10574.71 -4128.54 10574.393 L -4128.54 10593.699 L -3972.508 10593.699 L -3972.508 10429 L -4128.54 10429 M -4128.54 10478.144 L -4128.54 10463.265 C -4127.094 10463.164 -4125.637 10463.086 -4124.149 10463.039 C -4083.461 10461.761 -4056.767 10498.004 -4056.767 10498.004 C -4056.767 10498.004 -4085.599 10538.047 -4116.513 10538.047 C -4120.962 10538.047 -4124.951 10537.332 -4128.541 10536.125 L -4128.541 10491.011 C -4112.701 10492.925 -4109.513 10499.922 -4099.99 10515.797 L -4078.81 10497.938 C -4078.81 10497.938 -4094.271 10477.661 -4120.334 10477.661 C -4123.167 10477.66 -4125.878 10477.859 -4128.54 10478.144" fill="#77b900"/>
      </g>
    </g>
  </g>
</svg>
